<?xml version="1.0" standalone="no"?>
<!DOCTYPE svg PUBLIC "-//W3C//DTD SVG 1.1//EN" "http://www.w3.org/Graphics/SVG/1.1/DTD/svg11.dtd" >
<svg xmlns="http://www.w3.org/2000/svg">
<metadata></metadata>
<defs>
<font id="twiggy_rawmedium" horiz-adv-x="900" >
<font-face units-per-em="1300" ascent="1100" descent="-200" />
<missing-glyph horiz-adv-x="700" />
<glyph horiz-adv-x="0" />
<glyph unicode="&#xd;" horiz-adv-x="1100" d="M1000 400h-100v-100h-500v-300h-100v100h-100v100h-100v100h-100v100h100v100h100v100h100v100h100v-300h400v500h200v-500z" />
<glyph horiz-adv-x="1100" d="M0 0v900h100v-400h100v100h100v100h100v100h100v-300h500v-100h-500v-300h-100v100h-100v100h-100v100h-100v-400h-100z" />
<glyph unicode="&#x9;" horiz-adv-x="1100" d="M900 500v400h100v-900h-100v400h-100v-100h-100v-100h-100v-100h-100v300h-500v100h500v300h100v-100h100v-100h100v-100h100z" />
<glyph horiz-adv-x="1200" d="M600 300h100v-100h100v-100h100v-100h-700v100h100v100h100v100h100v100h100v-100zM100 900v100h900v-100h100v-700h-200v700h-700v-700h-200v700h100z" />
<glyph horiz-adv-x="1300" d="M700 -200h-400v100h-100v100h-100v100h-100v400h100v100h200v100h400v-100h200v100h400v-100h-100v-100h-100v-400h100v-100h100v-100h-100v-100h-300v100h-200v-100zM1200 900h-100v-100h-200v-100h-100v200h100v100h300v-100z" />
<glyph horiz-adv-x="5700" d="M3000 800h300v-100h-300v100zM1900 800h-200v-100h-200v-100h-200v-100h-200v-100h-100v-100h-200v-100h-100v-100h1300v-100h100v-100h-1900v100h-100v100h-100v100h100v100h200v100h200v100h200v100h200v100h200v100h200v100h200v100h100v100h400v-100h100v-100h-200 v-100zM5100 600h200v100h200v-100h100v-100h-100v-100h-100v-100h-100v-100h-100v-100h-100v-100h-200v200h100v100h100v100h-100v-100h-200v-100h-300v-100h-200v-100h-500v100h-100v200h100v100h100v100h200v100h300v100h-400v100h1000v-100h-300v-100h-200v-100h-200 v-100h-100v-100h300v100h300v100h300v100zM1600 500h200v100h200v100h200v100h200v100h200v-200h-200v-100h200v-100h-400v-100h-200v-100h-300v100h-100v100zM3000 0h-700v100h-100v100h100v100h200v100h300v100h400v-100h-300v-100h-200v-100h400v100h200v100h100v100 h-200v100h300v200h-200v100h300v100h300v-100h-100v-100h-100v-100h300v-100h-300v-200h-100v-100h-100v-100h-200v-100h-300v-100zM3000 1000h-100v-100h-200v200h300v-100zM2600 700h400v-100h-400v100zM5000 800v100h600v-100h-600z" />
<glyph horiz-adv-x="1100" d="M500 100h-100v100h-100v100h-100v100h-100v100h100v100h100v100h100v100h100v-300h500v-100h-500v-300z" />
<glyph horiz-adv-x="1100" d="M900 500h100v-100h-100v-100h-100v-100h-100v-100h-100v300h-500v100h500v300h100v-100h100v-100h100v-100z" />
<glyph horiz-adv-x="1100" d="M900 500v-100h-300v-400h-100v400h-300v100h100v100h100v100h100v100h100v-100h100v-100h100v-100h100z" />
<glyph horiz-adv-x="1100" d="M500 100h-100v100h-100v100h-100v100h300v400h100v-400h300v-100h-100v-100h-100v-100h-100v-100h-100v100z" />
<glyph unicode=" "  horiz-adv-x="700" />
<glyph unicode="&#x09;" horiz-adv-x="700" />
<glyph unicode="&#xa0;" horiz-adv-x="700" />
<glyph unicode="!" horiz-adv-x="400" d="M100 0v100h200v-100h-200zM100 200v600h200v-600h-200z" />
<glyph unicode="&#x22;" d="M500 500v300h200v-300h-200zM100 800h200v-300h-200v300z" />
<glyph unicode="#" horiz-adv-x="1100" d="M900 500h-200v-200h200v-100h-200v-200h-100v200h-200v-200h-100v200h-200v100h200v200h-200v100h200v200h100v-200h200v200h100v-200h200v-100zM600 300v200h-200v-200h200z" />
<glyph unicode="$" d="M600 300h100v-100h100v-100h-100v-100h-200v-200h-100v200h-200v100h400v100h-100v100h-100v100h-100v100h-100v100h-100v100h100v100h200v200h100v-200h200v-100h-400v-100h100v-100h100v-100h100v-100z" />
<glyph unicode="%" horiz-adv-x="1400" d="M900 500h-100v-100h-100v-100h-100v-100h-100v-100h-100v-100h-200v100h100v100h100v100h100v100h100v100h100v100h100v100h100v100h200v-100h-100v-100h-100v-100zM800 400h400v-100h100v-200h-100v-100h-400v100h-100v200h100v100zM200 700v-200h200v200h-200zM900 100 h200v200h-200v-200zM500 700h100v-200h-100v-100h-400v100h-100v200h100v100h400v-100z" />
<glyph unicode="&#x26;" horiz-adv-x="1000" d="M900 500v-100h-100v-300h-100v-100h-600v100h-100v300h100v100h-100v200h100v100h500v-100h-400v-200h200v-100h-200v-300h400v400h300z" />
<glyph unicode="'" horiz-adv-x="400" d="M100 800h200v-300h-200v300z" />
<glyph unicode="(" horiz-adv-x="700" d="M200 900v100h400v-100h-300v-1000h300v-100h-400v100h-100v1000h100z" />
<glyph unicode=")" horiz-adv-x="700" d="M100 -200v100h300v1000h-300v100h400v-100h100v-1000h-100v-100h-400z" />
<glyph unicode="*" horiz-adv-x="1100" d="M700 400h-100v100h-100v-100h-100v-100h-200v100h100v100h-200v100h200v100h-100v100h200v-100h100v-100h100v100h100v100h200v-100h-100v-100h200v-100h-200v-100h100v-100h-200v100z" />
<glyph unicode="+" horiz-adv-x="1100" d="M900 500v-100h-300v-200h-200v200h-300v100h300v200h200v-200h300z" />
<glyph unicode="," horiz-adv-x="500" d="M100 0v200h200v-300h-100v100h-100zM100 -100h100v-100h-100v100z" />
<glyph unicode="-" horiz-adv-x="1100" d="M900 500v-100h-800v100h800z" />
<glyph unicode="." horiz-adv-x="500" d="M100 0v200h200v-200h-200z" />
<glyph unicode="/" horiz-adv-x="700" d="M100 0v200h100v200h100v200h100v200h200v-200h-100v-200h-100v-200h-100v-200h-200z" />
<glyph unicode="0" d="M700 800v-100h100v-600h-100v-100h-500v100h-100v600h100v100h500zM600 700h-300v-600h300v600z" />
<glyph unicode="1" d="M600 100h200v-100h-600v100h200v600h-200v100h400v-700z" />
<glyph unicode="2" d="M600 300h-100v-100h-100v-100h400v-100h-700v100h100v100h100v100h100v100h100v100h100v200h-400v100h500v-100h100v-200h-100v-100h-100v-100z" />
<glyph unicode="3" d="M500 100v300h-300v100h300v200h-400v100h500v-100h100v-200h-100v-100h100v-300h-100v-100h-500v100h400z" />
<glyph unicode="4" d="M400 700v100h300v-500h100v-100h-100v-200h-200v200h-500v200h100v100h100v100h100v100h100zM300 500v-100h-100v-100h300v300h-100v-100h-100z" />
<glyph unicode="5" d="M500 100v300h-400v400h500v-100h-300v-200h300v-100h100v-300h-100v-100h-500v100h400z" />
<glyph unicode="6" d="M700 400h100v-300h-100v-100h-500v100h-100v600h100v100h500v-100h-400v-200h400v-100zM600 400h-300v-300h300v300z" />
<glyph unicode="7" d="M600 500v-100h-100v-400h-200v400h100v100h100v100h100v100h-500v100h700v-200h-100v-100h-100z" />
<glyph unicode="8" d="M700 400h100v-300h-100v-100h-500v100h-100v300h100v100h-100v200h100v100h500v-100h100v-200h-100v-100zM600 500v200h-300v-200h300zM600 100v300h-300v-300h300z" />
<glyph unicode="9" d="M600 300h-400v100h-100v300h100v100h500v-100h100v-600h-100v-100h-500v100h400v200zM600 400v300h-300v-300h300z" />
<glyph unicode=":" horiz-adv-x="500" d="M100 400v200h200v-200h-200zM100 0v200h200v-200h-200z" />
<glyph unicode=";" horiz-adv-x="500" d="M100 0v200h200v-300h-100v100h-100zM100 -100h100v-100h-100v100zM300 600v-200h-200v200h200z" />
<glyph unicode="&#x3c;" d="M500 100v100h-100v100h-100v100h-100v100h100v100h100v100h100v100h200v-100h-100v-100h-100v-100h-100v-100h100v-100h100v-100h100v-100h-200z" />
<glyph unicode="=" horiz-adv-x="1100" d="M900 500h-800v100h800v-100zM100 400h800v-100h-800v100z" />
<glyph unicode="&#x3e;" d="M700 400h-100v-100h-100v-100h-100v-100h-200v100h100v100h100v100h100v100h-100v100h-100v100h-100v100h200v-100h100v-100h100v-100h100v-100z" />
<glyph unicode="?" d="M600 500v-100h-100v-100h-200v100h100v100h100v100h100v100h-500v100h600v-100h100v-100h-100v-100h-100zM500 0h-200v200h200v-200z" />
<glyph unicode="@" horiz-adv-x="1400" d="M600 300h200v-100h-300v100h-100v200h100v100h500v-300h100v400h-800v-600h500v-100h-600v100h-100v600h100v100h1000v-100h100v-400h-100v-100h-300v100h-100v200h-200v-200z" />
<glyph unicode="A" d="M0 0v700h100v100h600v-100h100v-700h-200v300h-400v-300h-200zM600 400v300h-400v-300h400z" />
<glyph unicode="B" d="M0 0v800h700v-100h100v-200h-100v-100h100v-300h-100v-100h-700zM600 500v200h-400v-200h400zM600 400h-400v-300h400v300z" />
<glyph unicode="C" horiz-adv-x="800" d="M700 0h-600v100h-100v600h100v100h600v-100h-500v-600h500v-100z" />
<glyph unicode="D" d="M0 0v800h700v-100h100v-600h-100v-100h-700zM600 700h-400v-600h400v600z" />
<glyph unicode="E" horiz-adv-x="800" d="M0 0v800h700v-100h-500v-200h400v-100h-400v-300h500v-100h-700z" />
<glyph unicode="F" horiz-adv-x="800" d="M0 0v800h700v-100h-500v-200h400v-100h-400v-400h-200z" />
<glyph unicode="G" d="M600 300h-200v100h400v-400h-700v100h-100v600h100v100h600v-100h-500v-600h400v200z" />
<glyph unicode="H" d="M0 0v800h200v-300h400v300h200v-800h-200v400h-400v-400h-200z" />
<glyph unicode="I" horiz-adv-x="500" d="M100 0v800h200v-800h-200z" />
<glyph unicode="J" horiz-adv-x="600" d="M500 100h-100v-100h-400v100h300v700h200v-700z" />
<glyph unicode="K" d="M500 100v100h-100v100h-100v-100h-100v-200h-200v800h200v-400h100v100h100v100h100v100h100v100h200v-100h-100v-100h-100v-100h-100v-200h100v-100h100v-100h100v-100h-200v100h-100z" />
<glyph unicode="L" horiz-adv-x="700" d="M0 0v800h200v-700h400v-100h-600z" />
<glyph unicode="M" horiz-adv-x="1100" d="M0 0v800h200v-100h100v-100h100v-100h200v100h100v100h100v100h200v-800h-200v500h-100v-100h-100v-100h-200v100h-100v100h-100v-500h-200z" />
<glyph unicode="N" horiz-adv-x="1000" d="M0 0v800h200v-100h100v-100h100v-100h100v-100h100v-100h100v500h200v-800h-200v100h-100v100h-100v100h-100v100h-100v100h-100v-500h-200z" />
<glyph unicode="O" d="M100 0v100h-100v600h100v100h600v-100h100v-600h-100v-100h-600zM200 700v-600h400v600h-400z" />
<glyph unicode="P" d="M0 0v800h700v-100h100v-300h-100v-100h-500v-300h-200zM600 400v300h-400v-300h400z" />
<glyph unicode="Q" d="M100 0v100h-100v600h100v100h600v-100h100v-600h-100v-100h100v-100h-200v100h-500zM200 700v-600h400v600h-400z" />
<glyph unicode="R" d="M0 0v800h700v-100h100v-300h-100v-100h100v-300h-200v300h-400v-300h-200zM600 400v300h-400v-300h400z" />
<glyph unicode="S" horiz-adv-x="700" d="M500 100v-100h-500v100h400v100h-100v100h-100v100h-100v100h-100v200h100v100h500v-100h-400v-100h100v-100h100v-100h100v-100h100v-200h-100z" />
<glyph unicode="T" d="M500 700v-700h-200v700h-300v100h800v-100h-300z" />
<glyph unicode="U" d="M500 100v-100h-400v100h-100v700h200v-700h300zM800 800v-800h-200v100h-100v100h100v600h200z" />
<glyph unicode="V" horiz-adv-x="800" d="M0 0v800h200v-500h100v100h100v100h100v100h100v100h100v100h200v-100h-100v-100h-100v-100h-100v-100h-100v-100h-100v-100h-100v-100h-100v-100h-200z" />
<glyph unicode="W" horiz-adv-x="1300" d="M0 0v800h200v-500h100v100h100v100h100v100h200v-300h100v100h100v100h100v100h100v100h100v100h200v-100h-100v-100h-100v-100h-100v-100h-100v-100h-100v-100h-100v-100h-100v-100h-200v300h-100v-100h-100v-100h-100v-100h-200z" />
<glyph unicode="X" horiz-adv-x="1000" d="M0 0v100h100v100h100v100h100v200h-100v100h-100v100h-100v100h200v-100h100v-100h100v-100h100v100h100v100h100v100h200v-100h-100v-100h-100v-100h-100v-200h100v-100h100v-100h100v-100h-200v100h-100v100h-100v100h-100v-100h-100v-100h-100v-100h-200z" />
<glyph unicode="Y" horiz-adv-x="1000" d="M700 400h-100v-400h-200v400h-100v100h-100v100h-100v100h-100v100h200v-100h100v-100h100v-100h200v100h100v100h100v100h200v-100h-100v-100h-100v-100h-100v-100z" />
<glyph unicode="Z" horiz-adv-x="800" d="M0 0v200h100v100h100v100h100v100h100v100h100v100h-500v100h700v-200h-100v-100h-100v-100h-100v-100h-100v-100h-100v-100h500v-100h-700z" />
<glyph unicode="[" horiz-adv-x="700" d="M0 -200v1200h500v-100h-300v-1000h300v-100h-500z" />
<glyph unicode="\" horiz-adv-x="700" d="M600 200v-200h-200v200h-100v200h-100v200h-100v200h200v-200h100v-200h100v-200h100z" />
<glyph unicode="]" horiz-adv-x="600" d="M0 -100h300v1000h-300v100h500v-1200h-500v100z" />
<glyph unicode="^" d="M200 900v100h100v100h300v-100h100v-100h-200v100h-100v-100h-200z" />
<glyph unicode="_" horiz-adv-x="1100" d="M0 -100h1100v-100h-1100v100z" />
<glyph unicode="`" d="M200 1000v100h200v-100h100v-100h-200v100h-100z" />
<glyph unicode="a" horiz-adv-x="800" d="M500 100v200h-300v-200h300zM100 0v100h-100v200h100v100h400v100h-400v100h500v-100h100v-500h-600z" />
<glyph unicode="b" horiz-adv-x="800" d="M0 0v800h200v-200h400v-100h100v-400h-100v-100h-600zM500 100v400h-300v-400h300z" />
<glyph unicode="c" horiz-adv-x="700" d="M600 100v-100h-500v100h-100v400h100v100h500v-100h-400v-400h400z" />
<glyph unicode="d" horiz-adv-x="800" d="M500 100v400h-300v-400h300zM100 0v100h-100v400h100v100h400v200h200v-800h-600z" />
<glyph unicode="e" horiz-adv-x="800" d="M600 500h100v-200h-500v-200h400v-100h-500v100h-100v400h100v100h500v-100zM500 500h-300v-100h300v100z" />
<glyph unicode="f" horiz-adv-x="600" d="M0 0v700h100v100h400v-100h-300v-200h300v-100h-300v-400h-200z" />
<glyph unicode="g" horiz-adv-x="800" d="M500 100v400h-300v-400h300zM100 0v100h-100v400h100v100h600v-700h-100v-100h-500v100h400v100h-400z" />
<glyph unicode="h" horiz-adv-x="800" d="M0 0v800h200v-200h400v-100h100v-500h-200v500h-300v-500h-200z" />
<glyph unicode="i" horiz-adv-x="500" d="M100 0v600h200v-600h-200zM100 800h200v-100h-200v100z" />
<glyph unicode="j" horiz-adv-x="500" d="M0 -200v100h200v700h200v-700h-100v-100h-300zM200 800h200v-100h-200v100z" />
<glyph unicode="k" horiz-adv-x="700" d="M500 100h-100v100h-100v100h-100v-300h-200v800h200v-400h100v100h100v100h200v-100h-100v-100h-100v-100h100v-100h100v-100h100v-100h-200v100z" />
<glyph unicode="l" horiz-adv-x="500" d="M100 0v800h200v-800h-200z" />
<glyph unicode="m" horiz-adv-x="1300" d="M0 0v600h200v-100h100v-100h-100v-400h-200zM700 400v-400h-200v500h-200v100h300v-100h200v-100h-100zM800 600h300v-100h100v-500h-200v500h-200v100z" />
<glyph unicode="n" horiz-adv-x="800" d="M0 0v600h200v-100h100v-100h-100v-400h-200zM600 500h100v-500h-200v500h-200v100h300v-100z" />
<glyph unicode="o" horiz-adv-x="800" d="M500 100v400h-300v-400h300zM600 500h100v-400h-100v-100h-500v100h-100v400h100v100h500v-100z" />
<glyph unicode="p" horiz-adv-x="800" d="M500 100v400h-300v-400h300zM600 500h100v-400h-100v-100h-400v-200h-200v800h600v-100z" />
<glyph unicode="q" horiz-adv-x="800" d="M500 100v400h-300v-400h300zM700 -200h-200v200h-400v100h-100v400h100v100h600v-800z" />
<glyph unicode="r" horiz-adv-x="700" d="M0 0v600h200v-100h100v-100h-100v-400h-200zM600 500h-300v100h300v-100z" />
<glyph unicode="s" horiz-adv-x="600" d="M0 0v100h300v100h-100v100h-100v100h-100v100h100v100h400v-100h-300v-100h100v-100h100v-100h100v-100h-100v-100h-400z" />
<glyph unicode="t" horiz-adv-x="600" d="M500 100v-100h-400v100h-100v700h200v-200h300v-100h-300v-400h300z" />
<glyph unicode="u" horiz-adv-x="800" d="M500 100h-100v100h100v400h200v-600h-200v100zM100 0v100h-100v500h200v-500h200v-100h-300z" />
<glyph unicode="v" horiz-adv-x="800" d="M0 0v600h200v-400h100v100h100v100h100v100h100v100h200v-100h-100v-100h-100v-100h-100v-100h-100v-100h-100v-100h-300z" />
<glyph unicode="w" horiz-adv-x="1200" d="M0 0v600h200v-300h100v100h100v100h100v100h200v-300h100v100h100v100h100v100h200v-100h-100v-100h-100v-100h-100v-100h-100v-100h-100v-100h-200v300h-100v-100h-100v-100h-100v-100h-200z" />
<glyph unicode="x" horiz-adv-x="800" d="M0 0v100h100v100h100v200h-100v100h-100v100h200v-100h100v-100h100v100h100v100h200v-100h-100v-100h-100v-200h100v-100h100v-100h-200v100h-100v100h-100v-100h-100v-100h-200z" />
<glyph unicode="y" horiz-adv-x="800" d="M500 100h-100v100h100v400h200v-700h-100v-100h-500v100h400v200zM100 0v100h-100v500h200v-500h200v-100h-300z" />
<glyph unicode="z" horiz-adv-x="800" d="M0 0v100h100v100h100v100h100v100h100v100h-400v100h700v-100h-100v-100h-100v-100h-100v-100h-100v-100h400v-100h-700z" />
<glyph unicode="{" horiz-adv-x="700" d="M200 900h100v100h300v-100h-200v-400h-100v-100h100v-500h200v-100h-300v100h-100v500h-200v100h200v400z" />
<glyph unicode="|" horiz-adv-x="400" d="M100 -100v1100h200v-1100h-200z" />
<glyph unicode="}" horiz-adv-x="700" d="M700 400h-200v-500h-100v-100h-300v100h200v500h100v100h-100v400h-200v100h300v-100h100v-400h200v-100z" />
<glyph unicode="~" d="M200 900h-100v100h100v-100zM200 1000v100h200v-100h-200zM400 1000h200v-100h-200v100zM700 1100v-100h-100v100h100z" />
<glyph horiz-adv-x="800" />
<glyph unicode="&#xa0;" />
<glyph unicode="&#xa1;" horiz-adv-x="400" d="M100 0v600h200v-600h-200zM100 800h200v-100h-200v100z" />
<glyph unicode="&#xa2;" d="M700 200h-200v-200h-100v200h-200v100h-100v200h100v100h200v200h100v-200h200v-100h-400v-200h400v-100z" />
<glyph unicode="&#xa3;" d="M500 700h-200v-200h300v-100h-300v-300h300v100h200v-100h-100v-100h-600v400h-100v100h100v200h100v100h300v-100z" />
<glyph unicode="&#xa4;" d="M600 300v-100h-400v100h-100v200h100v100h400v-100h100v-200h-100zM300 300h200v200h-200v-200zM800 200v-100h-200v100h200zM600 600v100h200v-100h-200zM0 700h200v-100h-200v100zM0 200h200v-100h-200v100z" />
<glyph unicode="&#xa5;" horiz-adv-x="1100" d="M600 300h300v-100h-300v-200h-200v200h-300v100h300v100h-100v100h-100v100h-100v100h-100v100h200v-100h100v-100h100v-100h200v100h100v100h100v100h200v-100h-100v-100h-100v-100h-100v-100h-100v-100z" />
<glyph unicode="&#xa6;" horiz-adv-x="400" d="M100 400h200v-500h-200v500zM100 1000h200v-500h-200v500z" />
<glyph unicode="&#xa7;" d="M500 100h-300v100h-100v200h100v100h-100v200h100v100h400v-100h-300v-200h300v-100h100v-200h-100v-100h100v-200h-100v-100h-400v100h300v200zM300 200h200v200h-200v-200z" />
<glyph unicode="&#xa8;" d="M100 1100h200v-100h-200v100zM700 1100v-100h-200v100h200z" />
<glyph unicode="&#xa9;" horiz-adv-x="1300" d="M1100 0h-900v100h-100v600h100v100h900v-100h100v-600h-100v-100zM600 300h200v-100h-300v100h-100v200h100v100h300v-100h-200v-200zM300 100h700v600h-700v-600z" />
<glyph unicode="&#xaa;" horiz-adv-x="800" d="M0 0v100h700v-100h-700zM500 700h-400v100h500v-100h100v-500h-600v100h-100v200h100v100h400v100zM500 300v200h-300v-200h300z" />
<glyph unicode="&#xab;" horiz-adv-x="1100" d="M600 300v100h-100v100h100v100h100v100h200v-100h-100v-100h-100v-100h100v-100h100v-100h-200v100h-100zM300 300h-100v100h-100v100h100v100h100v100h200v-100h-100v-100h-100v-100h100v-100h100v-100h-200v100z" />
<glyph unicode="&#xac;" horiz-adv-x="1100" d="M900 500v-300h-200v200h-600v100h800z" />
<glyph unicode="&#xad;" horiz-adv-x="1100" d="M900 500v-100h-800v100h800z" />
<glyph unicode="&#xae;" horiz-adv-x="1300" d="M900 500v-100h-100v-100h100v-100h-200v100h-100v-100h-200v400h400v-100h100zM1100 0h-900v100h-100v600h100v100h900v-100h100v-600h-100v-100zM700 400v100h-100v-100h100zM300 100h700v600h-700v-600z" />
<glyph unicode="&#xaf;" horiz-adv-x="1100" d="M100 1100h800v-100h-800v100z" />
<glyph unicode="&#xb0;" horiz-adv-x="700" d="M500 700h100v-200h-100v-100h-400v100h-100v200h100v100h400v-100zM400 700h-200v-200h200v200z" />
<glyph unicode="&#xb1;" horiz-adv-x="1100" d="M900 500v-100h-300v-200h-200v200h-300v100h300v200h200v-200h300zM100 0v100h800v-100h-800z" />
<glyph unicode="&#xb2;" d="M700 800v-100h-400v100h100v100h100v100h-200v100h300v-100h100v-100h-100v-100h100z" />
<glyph unicode="&#xb3;" d="M700 800h-100v-100h-300v100h200v100h-100v100h-100v100h300v-100h100v-200z" />
<glyph unicode="&#xb4;" d="M600 1100v-100h-100v-100h-200v100h100v100h200z" />
<glyph unicode="&#xb5;" d="M500 100v-100h-300v-200h-200v800h200v-500h300zM700 600v-500h100v-100h-200v100h-100v500h200z" />
<glyph unicode="&#xb6;" horiz-adv-x="1100" d="M200 -100v500h-100v100h-100v200h100v100h300v-900h-200zM1000 800v-100h-200v-800h-200v900h400z" />
<glyph unicode="&#xb7;" horiz-adv-x="500" d="M100 400v200h200v-200h-200z" />
<glyph unicode="&#xb8;" horiz-adv-x="700" d="M200 -100h100v100h100v-200h-200v100z" />
<glyph unicode="&#xb9;" d="M700 800v-100h-400v100h100v200h-100v100h300v-300h100z" />
<glyph unicode="&#xba;" horiz-adv-x="800" d="M0 0v100h700v-100h-700zM600 300v-100h-500v100h-100v400h100v100h500v-100h100v-400h-100zM500 700h-300v-400h300v400z" />
<glyph unicode="&#xbb;" horiz-adv-x="1100" d="M900 500v-100h-100v-100h-100v-100h-200v100h100v100h100v100h-100v100h-100v100h200v-100h100v-100h100zM300 300v-100h-200v100h100v100h100v100h-100v100h-100v100h200v-100h100v-100h100v-100h-100v-100h-100z" />
<glyph unicode="&#xbc;" horiz-adv-x="1400" d="M900 500h-100v-100h-100v-100h-100v-100h-100v-100h-100v-100h-200v100h100v100h100v100h100v100h100v100h100v100h100v100h100v100h200v-100h-100v-100h-100v-100zM200 700h-100v100h300v-300h100v-100h-400v100h100v200zM1000 300v100h200v-400h-200v100h-200v100h100 v100h100z" />
<glyph unicode="&#xbd;" horiz-adv-x="1400" d="M1000 200v100h-200v100h300v-100h100v-100h-100v-100h100v-100h-400v100h100v100h100zM900 500h-100v-100h-100v-100h-100v-100h-100v-100h-100v-100h-200v100h100v100h100v100h100v100h100v100h100v100h100v100h100v100h200v-100h-100v-100h-100v-100zM200 700h-100v100 h300v-300h100v-100h-400v100h100v200z" />
<glyph unicode="&#xbe;" horiz-adv-x="1400" d="M900 500h-100v-100h-100v-100h-100v-100h-100v-100h-100v-100h-200v100h100v100h100v100h100v100h100v100h100v100h100v100h100v100h200v-100h-100v-100h-100v-100zM300 500v100h-100v100h-100v100h300v-100h100v-200h-100v-100h-300v100h200zM1000 300v100h200v-400 h-200v100h-200v100h100v100h100z" />
<glyph unicode="&#xbf;" d="M600 500v-100h-100v-100h-100v-100h-100v-100h500v-100h-600v100h-100v100h100v100h100v100h100v100h200zM600 600h-200v200h200v-200z" />
<glyph unicode="&#xc0;" d="M0 0v700h100v100h600v-100h100v-700h-200v300h-400v-300h-200zM200 1000v100h200v-100h100v-100h-200v100h-100zM600 400v300h-400v-300h400z" />
<glyph unicode="&#xc1;" d="M0 0v700h100v100h600v-100h100v-700h-200v300h-400v-300h-200zM600 400v300h-400v-300h400zM400 1100h200v-100h-100v-100h-200v100h100v100z" />
<glyph unicode="&#xc2;" d="M0 0v700h100v100h600v-100h100v-700h-200v300h-400v-300h-200zM200 1000h100v100h300v-100h100v-100h-200v100h-100v-100h-200v100zM200 700v-300h400v300h-400z" />
<glyph unicode="&#xc3;" d="M0 0v700h100v100h600v-100h100v-700h-200v300h-400v-300h-200zM200 1000v-100h-100v100h100zM200 1100h200v-100h-200v100zM400 1000h200v-100h-200v100zM200 700v-300h400v300h-400zM700 1100v-100h-100v100h100z" />
<glyph unicode="&#xc4;" d="M0 0v700h100v100h600v-100h100v-700h-200v300h-400v-300h-200zM100 1000h200v-100h-200v100zM600 400v300h-400v-300h400zM500 1000h200v-100h-200v100z" />
<glyph unicode="&#xc5;" d="M0 0v700h100v100h200v100h200v-100h200v-100h100v-700h-200v300h-400v-300h-200zM200 1000h100v-100h-100v100zM200 700v-300h400v300h-400zM500 900v100h100v-100h-100zM500 1100v-100h-200v100h200z" />
<glyph unicode="&#xc6;" horiz-adv-x="1400" d="M0 0v700h100v100h1200v-100h-500v-200h400v-100h-400v-300h500v-100h-700v300h-400v-300h-200zM600 400v300h-400v-300h400z" />
<glyph unicode="&#xc7;" horiz-adv-x="800" d="M100 0v100h-100v600h100v100h600v-100h-500v-600h500v-100h-200v-200h-300v100h200v100h-300z" />
<glyph unicode="&#xc8;" horiz-adv-x="800" d="M0 0v800h700v-100h-500v-200h400v-100h-400v-300h500v-100h-700zM200 1000v100h200v-100h100v-100h-200v100h-100z" />
<glyph unicode="&#xc9;" horiz-adv-x="800" d="M0 0v800h700v-100h-500v-200h400v-100h-400v-300h500v-100h-700zM400 1100h200v-100h-100v-100h-200v100h100v100z" />
<glyph unicode="&#xca;" horiz-adv-x="800" d="M0 0v800h700v-100h-500v-200h400v-100h-400v-300h500v-100h-700zM200 1000v100h300v-100h100v-100h-200v100h-100v-100h-200v100h100z" />
<glyph unicode="&#xcb;" horiz-adv-x="800" d="M0 0v800h700v-100h-500v-200h400v-100h-400v-300h500v-100h-700zM100 1000h200v-100h-200v100zM500 1000h200v-100h-200v100z" />
<glyph unicode="&#xcc;" horiz-adv-x="500" d="M0 1100h200v-100h100v-100h-200v100h-100v100zM100 0v800h200v-800h-200z" />
<glyph unicode="&#xcd;" horiz-adv-x="500" d="M100 0v800h200v-800h-200zM200 1000v100h200v-100h-100v-100h-200v100h100z" />
<glyph unicode="&#xce;" horiz-adv-x="500" d="M200 900h-200v100h100v100h300v-100h100v-100h-200v100h-100v-100zM100 0v800h200v-800h-200z" />
<glyph unicode="&#xcf;" horiz-adv-x="500" d="M100 0v800h200v-800h-200zM100 1000v-100h-200v100h200zM300 1000h200v-100h-200v100z" />
<glyph unicode="&#xd0;" horiz-adv-x="1100" d="M400 100h400v600h-400v-200h200v-100h-200v-300zM200 0v400h-200v100h200v300h700v-100h100v-600h-100v-100h-700z" />
<glyph unicode="&#xd1;" horiz-adv-x="1000" d="M0 0v800h200v-100h100v-100h100v-100h100v-100h100v-100h100v500h200v-800h-200v100h-100v100h-100v100h-100v100h-100v100h-100v-500h-200zM200 1000v-100h-100v100h100zM200 1100h300v-100h200v-100h-300v100h-200v100zM800 1000h-100v100h100v-100z" />
<glyph unicode="&#xd2;" d="M100 0v100h-100v600h100v100h600v-100h100v-600h-100v-100h-600zM200 1000v100h200v-100h100v-100h-200v100h-100zM200 700v-600h400v600h-400z" />
<glyph unicode="&#xd3;" d="M100 0v100h-100v600h100v100h600v-100h100v-600h-100v-100h-600zM400 1100h200v-100h-100v-100h-200v100h100v100zM200 700v-600h400v600h-400z" />
<glyph unicode="&#xd4;" d="M200 1000h100v100h300v-100h100v-100h-200v100h-100v-100h-200v100zM700 800v-100h100v-600h-100v-100h-600v100h-100v600h100v100h600zM200 700v-600h400v600h-400z" />
<glyph unicode="&#xd5;" d="M200 1000v-100h-100v100h100zM200 1100h200v-100h-200v100zM700 800v-100h100v-600h-100v-100h-600v100h-100v600h100v100h600zM400 1000h200v-100h-200v100zM200 700v-600h400v600h-400zM700 1100v-100h-100v100h100z" />
<glyph unicode="&#xd6;" d="M100 0v100h-100v600h100v100h600v-100h100v-600h-100v-100h-600zM100 1000h200v-100h-200v100zM200 700v-600h400v600h-400zM500 1000h200v-100h-200v100z" />
<glyph unicode="&#xd7;" horiz-adv-x="1100" d="M700 400v-100h100v-100h-200v100h-100v100h-100v-100h-100v-100h-200v100h100v100h100v100h-100v100h-100v100h200v-100h100v-100h100v100h100v100h200v-100h-100v-100h-100v-100h100z" />
<glyph unicode="&#xd8;" d="M600 500h-100v100h100v100h-400v-400h100v-100h-100v-100h400v400zM300 300v100h100v-100h-100zM700 800v-100h100v-600h-100v-100h-600v100h-100v600h100v100h600zM500 500v-100h-100v100h100z" />
<glyph unicode="&#xd9;" d="M500 100v-100h-400v100h-100v700h200v-700h300zM800 800v-800h-200v100h-100v100h100v600h200zM200 1000v100h200v-100h100v-100h-200v100h-100z" />
<glyph unicode="&#xda;" d="M500 100v-100h-400v100h-100v700h200v-700h300zM800 800v-800h-200v100h-100v100h100v600h200zM400 1100h200v-100h-100v-100h-200v100h100v100z" />
<glyph unicode="&#xdb;" d="M500 100v-100h-400v100h-100v700h200v-700h300zM800 800v-800h-200v100h-100v100h100v600h200zM200 1000h100v100h300v-100h100v-100h-200v100h-100v-100h-200v100z" />
<glyph unicode="&#xdc;" d="M500 100v-100h-400v100h-100v700h200v-700h300zM800 800v-800h-200v100h-100v100h100v600h200zM100 1000h200v-100h-200v100zM500 1000h200v-100h-200v100z" />
<glyph unicode="&#xdd;" horiz-adv-x="1000" d="M700 400h-100v-400h-200v400h-100v100h-100v100h-100v100h-100v100h200v-100h100v-100h100v-100h200v100h100v100h100v100h200v-100h-100v-100h-100v-100h-100v-100zM400 1000h100v100h200v-100h-100v-100h-200v100z" />
<glyph unicode="&#xde;" d="M0 0v800h200v-200h500v-100h100v-200h-100v-100h-500v-200h-200zM600 300v200h-400v-200h400z" />
<glyph unicode="&#xdf;" d="M0 0v700h100v100h600v-100h100v-200h-100v-100h100v-300h-100v-100h-400v100h300v300h-200v100h200v200h-400v-700h-200z" />
<glyph unicode="&#xe0;" horiz-adv-x="800" d="M500 100v200h-300v-200h300zM600 500h100v-500h-600v100h-100v200h100v100h400v100h-400v100h500v-100zM200 800v100h200v-100h100v-100h-200v100h-100z" />
<glyph unicode="&#xe1;" horiz-adv-x="800" d="M500 100v200h-300v-200h300zM600 500h100v-500h-600v100h-100v200h100v100h400v100h-400v100h500v-100zM400 800v100h200v-100h-100v-100h-200v100h100z" />
<glyph unicode="&#xe2;" horiz-adv-x="800" d="M500 100v200h-300v-200h300zM600 500h100v-500h-600v100h-100v200h100v100h400v100h-400v100h500v-100zM400 700v100h-100v-100h-200v100h100v100h300v-100h100v-100h-200z" />
<glyph unicode="&#xe3;" horiz-adv-x="800" d="M500 100v200h-300v-200h300zM600 500h100v-500h-600v100h-100v200h100v100h400v100h-400v100h500v-100zM100 900h300v-100h200v-100h-300v100h-200v100zM700 800h-100v100h100v-100zM0 700v100h100v-100h-100z" />
<glyph unicode="&#xe4;" horiz-adv-x="800" d="M500 100v200h-300v-200h300zM600 500h100v-500h-600v100h-100v200h100v100h400v100h-400v100h500v-100zM700 800v-100h-200v100h200zM300 800v-100h-200v100h200z" />
<glyph unicode="&#xe5;" horiz-adv-x="800" d="M500 100v200h-300v-200h300zM600 500h100v-500h-600v100h-100v200h100v100h400v100h-400v100h500v-100zM500 900h-200v100h200v-100zM200 800v100h100v-100h-100zM600 900v-100h-100v100h100zM500 700h-200v100h200v-100z" />
<glyph unicode="&#xe6;" horiz-adv-x="1300" d="M1100 0h-500v100h-100v200h-300v-200h300v-100h-400v100h-100v200h100v100h400v100h-400v100h1000v-100h100v-200h-500v-200h400v-100zM700 400h300v100h-300v-100z" />
<glyph unicode="&#xe7;" horiz-adv-x="700" d="M600 500h-400v-400h400v-100h-200v-200h-200v100h100v100h-200v100h-100v400h100v100h500v-100z" />
<glyph unicode="&#xe8;" horiz-adv-x="800" d="M600 500h100v-200h-500v-200h400v-100h-500v100h-100v400h100v100h500v-100zM200 800v100h200v-100h100v-100h-200v100h-100zM500 500h-300v-100h300v100z" />
<glyph unicode="&#xe9;" horiz-adv-x="800" d="M600 500h100v-200h-500v-200h400v-100h-500v100h-100v400h100v100h500v-100zM500 500h-300v-100h300v100zM400 800v100h200v-100h-100v-100h-200v100h100z" />
<glyph unicode="&#xea;" horiz-adv-x="800" d="M600 500h100v-200h-500v-200h400v-100h-500v100h-100v400h100v100h500v-100zM400 700v100h-100v-100h-200v100h100v100h300v-100h100v-100h-200zM500 500h-300v-100h300v100z" />
<glyph unicode="&#xeb;" horiz-adv-x="800" d="M600 500h100v-200h-500v-200h400v-100h-500v100h-100v400h100v100h500v-100zM700 800v-100h-200v100h200zM500 500h-300v-100h300v100zM300 800v-100h-200v100h200z" />
<glyph unicode="&#xec;" horiz-adv-x="500" d="M200 800h100v-100h-200v100h-100v100h200v-100zM100 0v600h200v-600h-200z" />
<glyph unicode="&#xed;" horiz-adv-x="500" d="M200 800v100h200v-100h-100v-100h-200v100h100zM100 0v600h200v-600h-200z" />
<glyph unicode="&#xee;" horiz-adv-x="500" d="M500 700h-200v100h-100v-100h-200v100h100v100h300v-100h100v-100zM100 0v600h200v-600h-200z" />
<glyph unicode="&#xef;" horiz-adv-x="500" d="M500 700h-200v100h200v-100zM200 800v-100h-200v100h200zM100 0v600h200v-600h-200z" />
<glyph unicode="&#xf0;" d="M600 500h-300v-400h300v400zM800 800h-100v-100h100v-600h-100v-100h-500v100h-100v400h100v100h100v100h-100v100h400v100h200v-100zM600 600v100h-100v-100h100z" />
<glyph unicode="&#xf1;" horiz-adv-x="800" d="M0 0v600h200v-100h100v-100h-100v-400h-200zM600 500h100v-500h-200v500h-200v100h300v-100zM100 900h300v-100h200v-100h-300v100h-200v100zM700 800h-100v100h100v-100zM0 700v100h100v-100h-100z" />
<glyph unicode="&#xf2;" horiz-adv-x="800" d="M500 100v400h-300v-400h300zM100 0v100h-100v400h100v100h500v-100h100v-400h-100v-100h-500zM400 700h-200v100h-100v100h200v-100h100v-100z" />
<glyph unicode="&#xf3;" horiz-adv-x="800" d="M500 100v400h-300v-400h300zM500 700h-200v100h100v100h200v-100h-100v-100zM100 0v100h-100v400h100v100h500v-100h100v-400h-100v-100h-500z" />
<glyph unicode="&#xf4;" horiz-adv-x="800" d="M500 100v400h-300v-400h300zM600 500h100v-400h-100v-100h-500v100h-100v400h100v100h500v-100zM400 700v100h-100v-100h-200v100h100v100h300v-100h100v-100h-200z" />
<glyph unicode="&#xf5;" horiz-adv-x="800" d="M500 100v400h-300v-400h300zM600 500h100v-400h-100v-100h-500v100h-100v400h100v100h500v-100zM100 900h300v-100h200v-100h-300v100h-200v100zM700 800h-100v100h100v-100zM0 700v100h100v-100h-100z" />
<glyph unicode="&#xf6;" horiz-adv-x="800" d="M500 100v400h-300v-400h300zM100 0v100h-100v400h100v100h500v-100h100v-400h-100v-100h-500zM400 700v100h200v-100h-200zM100 700v100h200v-100h-200z" />
<glyph unicode="&#xf7;" horiz-adv-x="1100" d="M900 500v-100h-800v100h800zM600 300v-200h-200v200h200zM600 600h-200v200h200v-200z" />
<glyph unicode="&#xf8;" horiz-adv-x="800" d="M500 100v200h-100v-100h-200v-100h300zM100 0v100h-100v400h100v100h500v-100h100v-400h-100v-100h-500zM300 300v100h200v100h-300v-200h100z" />
<glyph unicode="&#xf9;" horiz-adv-x="800" d="M500 100h-100v100h100v400h200v-600h-200v100zM100 0v100h-100v500h200v-500h200v-100h-300zM400 700h-200v100h-100v100h200v-100h100v-100z" />
<glyph unicode="&#xfa;" horiz-adv-x="800" d="M500 100h-100v100h100v400h200v-600h-200v100zM500 700h-200v100h100v100h200v-100h-100v-100zM100 0v100h-100v500h200v-500h200v-100h-300z" />
<glyph unicode="&#xfb;" horiz-adv-x="800" d="M500 100h-100v100h100v400h200v-600h-200v100zM400 700v100h-100v-100h-200v100h100v100h300v-100h100v-100h-200zM100 100h-100v500h200v-500h200v-100h-300v100z" />
<glyph unicode="&#xfc;" horiz-adv-x="800" d="M500 100h-100v100h100v400h200v-600h-200v100zM100 0v100h-100v500h200v-500h200v-100h-300zM400 700v100h200v-100h-200zM100 700v100h200v-100h-200z" />
<glyph unicode="&#xfd;" horiz-adv-x="800" d="M500 100h-100v100h100v400h200v-700h-100v-100h-500v100h400v200zM100 100h-100v500h200v-500h200v-100h-300v100zM400 800v100h200v-100h-100v-100h-200v100h100z" />
<glyph unicode="&#xfe;" horiz-adv-x="800" d="M500 100v400h-300v-400h300zM600 500h100v-400h-100v-100h-400v-200h-200v1000h200v-200h400v-100z" />
<glyph unicode="&#xff;" horiz-adv-x="800" d="M500 100h-100v100h100v400h200v-700h-100v-100h-500v100h400v200zM400 700v100h200v-100h-200zM100 100h-100v500h200v-500h200v-100h-300v100zM300 800v-100h-200v100h200z" />
<glyph unicode="&#x152;" horiz-adv-x="1400" d="M1200 400h-400v-300h500v-100h-1200v100h-100v600h100v100h1200v-100h-500v-200h400v-100zM200 700v-600h400v600h-400z" />
<glyph unicode="&#x153;" horiz-adv-x="1300" d="M1100 0h-500v100h-100v400h-300v-400h300v-100h-400v100h-100v400h100v100h500v-100h100v-100h300v100h-300v100h400v-100h100v-200h-500v-200h400v-100z" />
<glyph unicode="&#x178;" horiz-adv-x="1000" d="M700 400h-100v-400h-200v400h-100v100h-100v100h-100v100h-100v100h200v-100h100v-100h100v-100h200v100h100v100h100v100h200v-100h-100v-100h-100v-100h-100v-100zM200 1000h200v-100h-200v100zM800 1000v-100h-200v100h200z" />
<glyph unicode="&#x2c6;" d="M200 900v100h100v100h300v-100h100v-100h-200v100h-100v-100h-200z" />
<glyph unicode="&#x2dc;" d="M200 900h-100v100h100v-100zM200 1000v100h200v-100h-200zM400 1000h200v-100h-200v100zM700 1100v-100h-100v100h100z" />
<glyph unicode="&#x2000;" horiz-adv-x="550" />
<glyph unicode="&#x2001;" horiz-adv-x="1100" />
<glyph unicode="&#x2002;" horiz-adv-x="550" />
<glyph unicode="&#x2003;" horiz-adv-x="1100" />
<glyph unicode="&#x2004;" horiz-adv-x="366" />
<glyph unicode="&#x2005;" horiz-adv-x="275" />
<glyph unicode="&#x2006;" horiz-adv-x="183" />
<glyph unicode="&#x2007;" horiz-adv-x="183" />
<glyph unicode="&#x2008;" horiz-adv-x="137" />
<glyph unicode="&#x2009;" horiz-adv-x="220" />
<glyph unicode="&#x200a;" horiz-adv-x="61" />
<glyph unicode="&#x2010;" horiz-adv-x="1100" d="M900 500v-100h-800v100h800z" />
<glyph unicode="&#x2011;" horiz-adv-x="1100" d="M900 500v-100h-800v100h800z" />
<glyph unicode="&#x2012;" horiz-adv-x="1100" d="M900 500v-100h-800v100h800z" />
<glyph unicode="&#x2013;" horiz-adv-x="700" d="M100 400v100h500v-100h-500z" />
<glyph unicode="&#x2014;" horiz-adv-x="1100" d="M1100 400h-1100v100h1100v-100z" />
<glyph unicode="&#x2018;" horiz-adv-x="500" d="M100 400v300h100v-100h100v-200h-200zM200 800h100v-100h-100v100z" />
<glyph unicode="&#x2019;" horiz-adv-x="500" d="M100 400v100h100v-100h-100zM100 600v200h200v-300h-100v100h-100z" />
<glyph unicode="&#x201a;" horiz-adv-x="500" d="M100 0v200h200v-300h-100v100h-100zM100 -100h100v-100h-100v100z" />
<glyph unicode="&#x201c;" d="M700 400h-200v300h100v-100h100v-200zM700 800v-100h-100v100h100zM100 700h100v-100h100v-200h-200v300zM300 800v-100h-100v100h100z" />
<glyph unicode="&#x201d;" d="M600 500v100h-100v200h200v-300h-100zM300 500h-100v100h-100v200h200v-300zM600 400h-100v100h100v-100zM100 400v100h100v-100h-100z" />
<glyph unicode="&#x201e;" d="M100 -100h100v-100h-100v100zM100 0v200h200v-300h-100v100h-100zM700 200v-300h-100v100h-100v200h200zM500 -100h100v-100h-100v100z" />
<glyph unicode="&#x2022;" horiz-adv-x="700" d="M500 300h-400v300h400v-300z" />
<glyph unicode="&#x2026;" horiz-adv-x="1100" d="M0 0v200h200v-200h-200zM1000 200v-200h-200v200h200zM600 200v-200h-200v200h200z" />
<glyph unicode="&#x202f;" horiz-adv-x="220" />
<glyph unicode="&#x2039;" d="M600 300v-100h-200v100h-100v100h-100v100h100v100h100v100h200v-100h-100v-100h-100v-100h100v-100h100z" />
<glyph unicode="&#x203a;" d="M600 300h-100v-100h-200v100h100v100h100v100h-100v100h-100v100h200v-100h100v-100h100v-100h-100v-100z" />
<glyph unicode="&#x205f;" horiz-adv-x="275" />
<glyph unicode="&#x20ac;" d="M600 300h-300v-200h500v-100h-600v100h-100v200h-100v100h100v100h-100v100h100v100h100v100h600v-100h-500v-100h300v-100h-300v-100h300v-100z" />
<glyph unicode="&#x2122;" horiz-adv-x="1100" d="M900 500v100h-100v100h100v100h100v-300h-100zM600 500h-100v300h100v-100h100v-100h-100v-100zM400 700h-100v-200h-100v200h-100v100h300v-100zM700 600h100v-100h-100v100z" />
<glyph unicode="&#x25fc;" horiz-adv-x="600" d="M0 600h600v-600h-600v600z" />
<glyph unicode="&#xfb01;" d="M0 0v700h100v100h300v-100h-200v-200h500v-500h-200v400h-300v-400h-200zM500 700v100h200v-100h-200z" />
<glyph unicode="&#xfb02;" d="M0 0v700h100v100h600v-800h-200v700h-300v-200h200v-100h-200v-400h-200z" />
<glyph unicode="&#xfb03;" horiz-adv-x="1300" d="M0 0v700h100v100h300v-100h-200v-200h200v200h100v100h300v-100h-200v-200h500v-500h-200v400h-300v-400h-200v400h-200v-400h-200zM1100 700h-200v100h200v-100z" />
<glyph unicode="&#xfb04;" horiz-adv-x="1300" d="M0 0v700h100v100h300v-100h-200v-200h200v200h100v100h600v-800h-200v700h-300v-200h200v-100h-200v-400h-200v400h-200v-400h-200z" />
</font>
</defs>
</svg>
