<svg xmlns="http://www.w3.org/2000/svg" width="48" height="52"><path d="M24 52h-8v-4h-4v-4H8v-4H4v-4H0V16h4v-4h4V8h4V4h4V0h16v4h4v4h4v4h4v4h4v20h-4v4h-4v4h-4v4h-4v4h-8z" fill="#d3d3d3"/><path d="M24 52h-8v-4h-4v-4H8v-4H4v-4H0V16h4v-4h4V8h4V4h4V0h16v4h4v4h4v4h4v4h4v20h-4v4h-4v4h-4v4h-4v4h-8zm-6-20h2V20h8v-4h-8v4h-4v12h2z" fill="#c0c0c0"/><path d="M24 52h-8v-4h-4v-4H8v-4H4v-4H0V16h4v-4h4V8h4V4h4V0h16v4h4v4h4v4h4v4h4v20h-4v4h-4v4h-4v4h-4v4h-8zM6 36h2V20h4v-4h4v-4h4V8h12V4H16v4h-4v4H8v4H4v20h2zm12-4h2v-4h4v-4h4v-8h-8v4h-4v12h2z" fill="#a9a9a9"/><path d="M24 52h-8v-4h-4v-4H8v-4H4v-4H0V16h4v-4h4V8h4V4h4V0h16v4h4v4h4v4h4v4h4v20h-4v4h-4v4h-4v4h-4v4h-8zm-8-12h8v-4h-4v-8h4v-4h4v-4h4v12h4V8h-4V4H16v4h-4v4H8v4H4v20h4v4h8z" fill="#808080"/><path d="M24 52h-8v-4h-4v-4H8v-4H4v-4H0V16h4v-4h4V8h4V4h4V0h16v4h4v4h4v4h4v4h4v20h-4v4h-4v4h-4v4h-4v4h-8zm-2-8h10v-4h4v-4h4V12h-4V8h-4V4H16v4h-4v4H8v4H4v20h4v4h4v4h10zm2-8h-4v-4h8V20h4v12h-4v4h-4z" fill="#696969"/><path d="M24 52h-8v-4h-4v-4H8v-4H4v-4H0V16h4v-4h4V8h4V4h4V0h16v4h4v4h4v4h4v4h4v20h-4v4h-4v4h-4v4h-4v4h-8zm-2-8h10v-4h4v-4h4V12h-4V8h-4V4H16v4h-4v4H8v4H4v20h4v4h4v4h10z" fill="#4d4d4d"/><path d="M24 52h-8v-4h-4v-4H8v-4H4v-4H0V16h4v-4h4V8h4V4h4V0h16v4h4v4h4v4h4v4h4v20h-4v4h-4v4h-4v4h-4v4h-8zm0-4h8v-4h4v-4h4v-4h4V16h-4v-4h-4V8h-4V4H16v4h-4v4H8v4H4v20h4v4h4v4h4v4h8z"/></svg>